<?xml version="1.0" encoding="utf-8"?>
<!-- Generator: Adobe Illustrator 25.2.0, SVG Export Plug-In . SVG Version: 6.00 Build 0)  -->
<svg version="1.1" id="Layer_1" xmlns="http://www.w3.org/2000/svg" xmlns:xlink="http://www.w3.org/1999/xlink" x="0px" y="0px"
	 viewBox="0 0 500 150" style="enable-background:new 0 0 500 150;" xml:space="preserve">
<style type="text/css">
	.st0{fill:#FBEF04;}
	.st1{opacity:0.72;fill:#F1C40F;}
	.st2{fill:#202120;}
	.st3{fill:#FE0200;}
	.st4{fill:#FFFFFF;}
</style>
<image style="overflow:visible;" width="570" height="150" xlink:href="../imgs/1.png"  transform="matrix(0.8772 0 0 1 0 0)">
</image>
<g id="_x23_fbef04ff">
	<path class="st0" d="M250,3.1c0.2-0.3,0.6,0,0.8-0.1c0,0,0,0.1,0,0.1C250.5,3.1,250.3,3.1,250,3.1z"/>
	<path class="st0" d="M225.8,27.2C225.8,27.2,225.9,27.2,225.8,27.2c0.1,0.3,0.1,0.6,0.1,0.8C225.7,27.8,225.9,27.4,225.8,27.2z"/>
	<path class="st0" d="M274.9,27.1c0.3,0.2,0,0.6,0.1,0.8c0,0-0.1,0-0.1,0C274.9,27.7,274.9,27.4,274.9,27.1z"/>
</g>
<circle class="st1" cx="250.4" cy="27.5" r="24"/>
<g id="_x23_080a08fe">
	<path class="st2" d="M242.7,4.3c2.4-0.8,4.9-1.2,7.3-1.2c0.3,0,0.6,0,0.8,0c2.4,0,4.9,0.4,7.2,1.2c1.9,0.6,3.7,1.5,5.4,2.5
		c3.5,2.2,6.3,5.2,8.3,8.7c1.5,2.6,2.4,5.4,2.9,8.4c0.2,1.1,0.3,2.2,0.3,3.2c0,0.3,0,0.6,0,0.8c0,4.7-1.5,9.3-4.1,13.2
		c-0.5,0.8-1.1,1.5-1.7,2.2c-2.6,3.2-6.1,5.6-9.9,7.1c-2,0.8-4.1,1.3-6.2,1.5c-3.1,0.3-6.4,0.1-9.4-0.8c-3.2-0.9-6.2-2.5-8.7-4.6
		c-2.4-2-4.5-4.5-6-7.2c-1.9-3.4-2.9-7.4-3-11.3c0-0.3,0-0.6,0-0.8c0-3.8,1-7.7,2.8-11.1c0.9-1.8,2.1-3.4,3.4-4.9
		C235,8.1,238.6,5.7,242.7,4.3 M249,5.5C249,5.5,249,5.5,249,5.5c-0.6,0.1-1.1,0.2-1.7,0.2c-4,0.5-7.7,2.2-10.8,4.7
		c-1.5,1.2-2.9,2.7-4,4.3c-1.2,1.6-2.1,3.4-2.8,5.3c-0.6,1.8-1.1,3.6-1.2,5.5c0.2,0.1,0.3-0.2,0.4-0.4c0.6-0.5,1.2-1.1,1.8-1.7
		c0.3-0.3,0.6-0.5,0.7-0.9c0.4-1.3,0.9-2.6,1.3-3.9c0.1,0,0.1,0.1,0.1,0.2c0.5,1.3,1,2.5,1.5,3.8c0,0.1,0,0.1,0.1,0.2
		c0.1,0,0.2,0,0.3,0c1.7,0,3.4,0,5.1,0c0.2-0.2,0.3-0.5,0.4-0.8c0.7-1.2,1.3-2.4,2-3.6c0.4,1.5,0.6,3,1,4.4c0.1,0.3,0.5,0.5,0.7,0.8
		c0.1,0.1,0.2,0.2,0.3,0.4c0.5,0.5,0.9,1.1,1.4,1.6c-0.1,0.1-0.2,0.3-0.3,0.3c-5.5,0-10.9,0-16.4,0c-0.2-0.1-0.3,0-0.4,0.2
		c0,1,0,2.1,0,3.1c0,0,0.1,0,0.1,0c0.1,1.2,0.3,2.5,0.5,3.7c0.4,1.9,1.2,3.7,2.1,5.4c0.1,0,0.1,0,0.1-0.1c0.4-1,0.7-2.1,1.1-3.2
		c0.1-0.1,0-0.3-0.1-0.4c-0.8-1.9-1.7-3.7-2.4-5.6c2,0,4.1,0,6.1,0c0.3,0.5,0.6,1,0.7,1.6c0,0,0.1,0,0.1,0c0.4-0.5,0.7-1,0.9-1.6
		c2.2,0,4.3,0,6.5,0c-1,2.1-2,4.2-3,6.3c0.2,1.4,0.7,2.8,1,4.2c0.8,3.1,1.6,6.3,2.5,9.4c0.1,0.1,0.2,0.1,0.4,0.1
		c1.3,0.3,2.7,0.7,4,0.6c0,0,0,0.1,0,0.1c0.9,0,1.9,0,2.8,0c0-0.1,0.2-0.1,0.3-0.1c1.3-0.1,2.6-0.3,3.9-0.6c1.3-0.3,2.6-0.8,3.8-1.4
		c0.7-0.3,1.5-0.8,2.2-1.2c0.8-0.5,1.5-1,2.2-1.5c0.2-0.2,0.4-0.3,0.6-0.5c0.1-0.1,0.3-0.1,0.3-0.2c0.3-0.4,0.7-0.8,1.1-1.1
		c0.3-0.3,0.6-0.6,0.9-0.9c2.4-2.7,4.1-6,4.9-9.6c0.3-1.2,0.6-2.4,0.5-3.6c0.1,0,0.1-0.1,0.1-0.1c0-0.9,0-1.8,0-2.8c0,0-0.1,0-0.1,0
		c-0.1-0.6-0.1-1.1-0.2-1.7c-0.6-4.4-2.6-8.6-5.6-11.8c-0.7-0.8-1.5-1.5-2.3-2.1c-0.2-0.2-0.4-0.3-0.6-0.5c-0.1-0.1-0.3-0.2-0.5-0.3
		c0-0.1-0.1-0.2-0.2-0.2c-0.1-0.1-0.2-0.2-0.3-0.2c-0.8-0.5-1.6-1.1-2.6-1.5l0,0c-0.6-0.2-1.1-0.5-1.7-0.7c-1.1-0.5-2.2-0.8-3.4-1
		c-1.1-0.3-2.2-0.5-3.3-0.4c0,0,0-0.1,0-0.1C250.9,5.4,249.9,5.4,249,5.5 M236.4,39c-0.2,0.6-0.5,1.1-0.8,1.7
		c-0.4,0.8-0.8,1.5-1.1,2.3c1.4,1.4,3,2.7,4.8,3.7c0-0.1,0-0.2-0.1-0.4c-0.6-1.6-1.2-3.2-1.8-4.9C237.1,40.7,236.9,39.8,236.4,39
		C236.5,39,236.5,39,236.4,39z"/>
</g>
<g id="_x23_fe0200ff">
	<path class="st3" d="M260.2,7.8c0.9,0.4,1.7,0.9,2.6,1.5c0.1,0.1,0.2,0.2,0.3,0.2c0.1,0,0.2,0.1,0.2,0.2c0.1,1.1,0.2,2.3,0.3,3.4
		c0.3,2.5,0.6,5,0.9,7.5c0.5,4.6,1.1,9.1,1.6,13.7c0.2,1.5,0.3,2.9,0.5,4.4c0.1,1.2,0.2,2.3,0.4,3.5c-0.3,0.3-0.5,0.7-0.9,0.9
		c-0.4,0.3-0.8,0.7-1.1,1.1c-0.1,0.1-0.2,0.1-0.3,0.2c-0.4-3.2-0.9-6.4-1.3-9.6c-0.5-3.7-1-7.5-1.5-11.2c-0.1,0-0.2,0.2-0.2,0.3
		c-0.8,3.3-1.6,6.6-2.5,9.9c-0.1,0.1,0,0.3-0.1,0.4c-0.9,0-1.9,0-2.8,0c-0.2,0.1-0.3,0-0.3-0.2c-0.7-2-1.3-4.1-2-6.1
		c0-0.1,0-0.2-0.2-0.2c-0.4,1.3-0.8,2.7-1.3,4c-1.1,0-2.1,0-3.2,0c-0.5-1.4-1-2.9-1.5-4.3c-0.5,0.5-1,1.1-1.4,1.6
		c-0.8,0-1.6,0-2.3,0c-2.2,0-4.3,0-6.5,0c-0.6,0-1.2,0-1.7,0c-2,0-4.1,0-6.1,0c-0.4,0-0.9,0-1.3,0c0,0,0,0.1,0,0.1c0,0-0.1,0-0.1,0
		c0-1,0-2.1,0-3.1c0.1-0.2,0.2-0.2,0.4-0.2c5.5,0,10.9,0,16.4,0c0.2,0,0.3-0.1,0.3-0.3c0.3-0.5,0.6-1,0.9-1.4
		c0.9-0.2,1.8-0.1,2.8-0.1c0.1,0,0.2-0.1,0.2,0c0.1,0,0.2,0.1,0.2,0.2c0.3,0.6,0.7,1.2,1,1.8c0,0.1,0.1,0.1,0.2,0.1
		c0.1-0.2,0.2-0.4,0.2-0.6c0.4-1.1,0.8-2.1,1.2-3.2c1,0,1.9,0,2.9,0c0.5,1.2,1,2.4,1.5,3.6c0,0.1,0.1,0.2,0.2,0.4
		c0.2-0.3,0.1-0.6,0.2-0.9c0.9-4.5,1.7-9,2.5-13.5C259.7,10.5,260,9.1,260.2,7.8z"/>
</g>
<g>
	<path d="M178.1,76.8c-0.2,3.5-1.2,6.5-3,8.9c-1.8,2.4-3.9,3.6-6.3,3.7c-1.3-0.1-2.3-0.5-3-1.3c-0.7-0.8-1.1-1.9-1.2-3.3
		c0-2.3,0.7-4.7,2.2-7.3c0.3-0.5,0.5-0.7,0.5-0.5s0,0.4,0,0.6c-1,1.9-1.5,3.6-1.5,5c0,1.1,0.4,1.9,1.1,2.4c0.7,0.6,1.6,0.9,2.8,0.9
		c1.4,0,2.8-0.4,4.1-1.1c1.3-0.9,2.2-2,2.7-3.5c0.2-0.5,0.3-1.2,0.3-2c0-0.3,0-0.7,0-1.2c0-0.5,0-0.8,0-1.1c0-0.6,0.2-1.3,0.4-2
		c0.2-0.7,0.4-1.3,0.6-1.6s0.3-0.5,0.4-0.5c0.1,0,0.1,0.1,0.1,0.3s0,0.5,0,1C178.1,74.6,178.1,75.5,178.1,76.8z M173.1,78.4
		c0,0.2,0,0.5,0,0.7c-0.1,0.3-0.2,0.6-0.4,0.9c-0.2,0.3-0.4,0.6-0.7,0.9c-0.2,0.2-0.3,0.3-0.4,0.3c-0.1,0-0.2-0.1-0.4-0.3
		s-0.4-0.4-0.6-0.5s-0.4-0.3-0.5-0.4c-0.1-0.1-0.2-0.2-0.2-0.3c0.1-0.3,0.2-0.5,0.3-0.7c0.2-0.5,0.4-0.9,0.6-1.2
		c0.2-0.3,0.4-0.7,0.7-1.3c0.2,0.2,0.4,0.4,0.7,0.6s0.5,0.4,0.7,0.6C173,77.9,173.1,78.1,173.1,78.4z"/>
	<path d="M182,74.3c0,0.8,0,1.5,0,2.2c0,0.6,0,1.2-0.1,1.6c-0.1,1-0.3,1.8-0.5,2.5c-0.3,0.7-0.5,1.2-0.6,1.5s-0.3,0.4-0.4,0.5
		c-0.1,0.1-0.2,0.1-0.3,0.1c-0.1,0-0.1-0.1-0.1-0.2c0,0,0.1-0.4,0.2-1c0.1-0.6,0.2-1.3,0.2-1.9c0-0.6,0-1.5,0-2.6c0-1.1,0-2,0.1-2.5
		c0-0.3,0.1-0.7,0.2-1.1c0.1-0.4,0.2-0.7,0.4-1.1c0.1-0.4,0.3-0.7,0.4-1s0.3-0.6,0.4-0.8c0.1-0.2,0.2-0.2,0.3-0.2
		c0.1,0,0.1,0.1,0.1,0.2c0,0.1,0,0.3-0.1,0.6c0,0.3-0.1,0.7-0.1,1.1c0,0.4,0,0.8-0.1,1.2C182.1,73.8,182,74.1,182,74.3z"/>
	<path d="M190.6,77.6c0.1-0.1,0.3-0.1,0.4-0.1c0.1,0.4,0.2,0.7,0.2,1.1s-0.1,0.7-0.2,1c-0.1,0-0.4,0.1-1,0.4
		c-0.6,0.2-0.9,0.4-1.1,0.4c-0.6,0.2-1.2,0.8-2,1.7c-0.7,0.9-1.4,1.7-1.9,2.4c-1.1,1.4-2.3,2.6-3.7,3.5c-0.3,0.2-0.7,0.4-1.1,0.6
		c-0.6,0.3-1,0.5-1.3,0.6c-0.2,0.1-0.4,0.1-0.5,0.1c-0.1-0.1,0-0.2,0.1-0.3c0.1,0,0.1-0.1,0.2-0.2c0.1-0.1,0.2-0.1,0.3-0.2l1.4-1
		c0.9-0.7,1.4-1.2,1.6-1.4c0.5-0.5,0.9-0.8,1.1-1.1c0.2-0.2,0.5-0.5,0.9-1c0.3-0.3,0.8-1.1,1.7-2.4c0.5-0.7,0.9-1.2,1.2-1.6
		c0.4-0.5,0.8-0.9,1.2-1.2c0.4-0.3,0.8-0.5,1.2-0.7C189.5,78,189.9,77.9,190.6,77.6z"/>
	<path d="M193.7,79.6l-0.8,1.8c-0.2,0.5-0.4,0.7-0.6,0.6c-0.1,0-0.1-0.2,0-0.5l0.1-0.6c0-0.2-0.1-0.4-0.4-0.6
		c-0.3-0.2-0.8-0.3-1.3-0.3c-0.5,0-1,0.1-1.3,0.2l-2.3-0.2c1.6-2,3.3-3.1,5-3.1c0.5,0,0.9,0.1,1.2,0.2c0.3,0.1,0.5,0.3,0.7,0.5
		c0,0,0.1,0.1,0.1,0.1c0,0,0,0,0.1,0.1c0.1,0.1,0.2,0.2,0.2,0.3c0,0.1,0,0.3,0,0.4c0,0.2-0.1,0.3-0.1,0.4L193.7,79.6z"/>
	<path d="M191.6,65.1c0-0.1,0.2-0.6,0.7-1.5c0.4-0.9,0.7-1.3,0.8-1.3c0.2-0.1,0.5,0.1,0.8,0.4s0.6,0.7,0.8,0.9
		c0.2-0.4,0.5-0.8,0.7-1.2c0.3-0.5,0.4-0.7,0.5-0.7c0.3,0,0.6,0.2,1,0.6s0.6,0.8,0.6,1.1c0,0.4-0.2,0.9-0.6,1.5
		c-0.4,0.6-0.7,0.8-0.9,0.8c-0.1,0-0.3-0.2-0.7-0.5c-0.3-0.3-0.6-0.6-0.8-0.7c-0.6,1.2-1.1,1.8-1.4,1.8c-0.1,0-0.2-0.1-0.4-0.2
		c-0.2-0.1-0.4-0.3-0.7-0.6C191.7,65.3,191.6,65.2,191.6,65.1z M194.1,78.8c-0.2,0.1-0.3,0.1-0.5,0.1c-0.2,0-0.3,0-0.4-0.1
		c0.4-0.9,0.9-1.7,1.4-2.4c0.6-0.8,1.1-1.4,1.5-1.8c0.4-0.4,0.7-0.7,1-0.8c0.2-0.1,0.3-0.1,0.4,0c0,0.1-0.1,0.4-0.3,0.9
		c-0.2,0.5-0.4,0.9-0.5,1.2c-0.1,0.2-0.3,0.4-0.6,0.5c-0.3,0.2-0.7,0.5-1.1,1C194.6,78,194.3,78.4,194.1,78.8z"/>
	<path d="M212.5,76.8c-0.2,3.5-1.2,6.5-3,8.9c-1.8,2.4-3.9,3.6-6.3,3.7c-1.3-0.1-2.3-0.5-3-1.3c-0.7-0.8-1.1-1.9-1.2-3.3
		c0-2.3,0.7-4.7,2.2-7.3c0.3-0.5,0.5-0.7,0.5-0.5s0,0.4,0,0.6c-1,1.9-1.5,3.6-1.5,5c0,1.1,0.4,1.9,1.1,2.4c0.7,0.6,1.6,0.9,2.8,0.9
		c1.4,0,2.8-0.4,4.1-1.1c1.3-0.9,2.2-2,2.7-3.5c0.2-0.5,0.3-1.2,0.3-2c0-0.3,0-0.7,0-1.2c0-0.5,0-0.8,0-1.1c0-0.6,0.2-1.3,0.4-2
		c0.2-0.7,0.4-1.3,0.6-1.6s0.3-0.5,0.4-0.5c0.1,0,0.1,0.1,0.1,0.3s0,0.5,0,1C212.6,74.6,212.6,75.5,212.5,76.8z M207.6,78.4
		c0,0.2,0,0.5,0,0.7c-0.1,0.3-0.2,0.6-0.4,0.9c-0.2,0.3-0.4,0.6-0.7,0.9c-0.2,0.2-0.3,0.3-0.4,0.3c-0.1,0-0.2-0.1-0.4-0.3
		s-0.4-0.4-0.6-0.5s-0.4-0.3-0.5-0.4c-0.1-0.1-0.2-0.2-0.2-0.3c0.1-0.3,0.2-0.5,0.3-0.7c0.2-0.5,0.4-0.9,0.6-1.2
		c0.2-0.3,0.4-0.7,0.7-1.3c0.2,0.2,0.4,0.4,0.7,0.6s0.5,0.4,0.7,0.6C207.5,77.9,207.6,78.1,207.6,78.4z"/>
	<path d="M215.6,77.4c0,0.4-0.1,0.8-0.1,1.1c-0.1,0.3-0.2,0.6-0.3,0.9c-0.1,0.2-0.2,0.4-0.4,0.5c-0.2,0.1-0.4,0.2-0.6,0.1
		c0-0.9,0.1-2.1,0.3-3.6c0.2-1.5,0.4-3.2,0.8-5.1c0.2-0.5,0.5-1.5,1.1-2.9c0.1-0.1,0.1-0.2,0.2-0.2s0.1,0.1,0.1,0.2
		c0,0.7-0.2,2-0.4,3.9s-0.4,3.2-0.4,3.9C215.6,76.9,215.6,77.3,215.6,77.4z"/>
	<path d="M221.2,80.2c-0.3-0.1-0.6-0.1-0.7,0c-0.6,0.2-1.1,0.8-1.7,1.9c-0.6,1.1-1.4,1.6-2.1,1.6c-0.8-0.1-1.4-0.4-1.8-1.1
		s-0.6-1.5-0.6-2.5c0.2-0.6,0.4-1.2,0.6-1.7s0.5-0.8,0.8-1c0,1.1,0.3,1.9,0.8,2.4c0.4,0.4,0.9,0.5,1.4,0.5c0.7,0,1.3-0.3,1.8-1
		c0.4-0.5,0.7-0.8,0.9-1c0.3-0.2,0.5-0.3,0.7-0.3c0,0,0.1,0.2,0.1,0.5c0.1,0.3,0.1,0.5,0.1,0.7c0,0.2,0,0.4-0.1,0.5
		C221.3,79.9,221.3,80,221.2,80.2z M215.5,65.5c0-0.1,0.2-0.6,0.7-1.5c0.4-0.9,0.7-1.3,0.8-1.3c0.2-0.1,0.5,0.1,0.8,0.4
		c0.4,0.3,0.6,0.7,0.8,0.9c0.2-0.4,0.5-0.8,0.7-1.2s0.4-0.7,0.5-0.7c0.3,0,0.6,0.2,1,0.6c0.4,0.4,0.6,0.8,0.6,1.1
		c0,0.4-0.2,0.9-0.6,1.5c-0.4,0.6-0.7,0.8-0.9,0.8c-0.1,0-0.3-0.2-0.7-0.5s-0.6-0.6-0.8-0.7c-0.6,1.2-1.1,1.8-1.4,1.8
		c-0.1,0-0.2-0.1-0.4-0.2c-0.2-0.1-0.4-0.3-0.7-0.6S215.5,65.6,215.5,65.5z"/>
	<path d="M221.8,78.1c0.2,0.1,0.4,0,0.6-0.1s0.5-0.5,0.8-1.1c0.2,0.1,0.3,0.2,0.4,0.2c0.3,0.1,0.6-0.3,0.9-1.2c0,0,0.1,0,0.3,0.1
		c0.2,0.1,0.3,0,0.4-0.2c0.1-0.2,0.2-0.4,0.4-0.7c0.1-0.3,0.2-0.5,0.2-0.5c0.1,0,0.1,0,0.1,0.1c0,0.1,0,0.2,0,0.3
		c-0.1,0.5-0.2,1-0.5,1.5c-0.2,0.5-0.4,0.8-0.7,1c-0.3,0.2-0.5,0.5-0.7,0.7c-0.2,0.2-0.5,0.4-0.7,0.5c-0.2,0.1-0.4,0.2-0.6,0.2
		c-0.8,0.9-1.3,1.3-1.6,1.2c0-0.1-0.1-0.2-0.1-0.4s-0.1-0.4-0.1-0.6c0-0.2,0-0.4,0-0.6c0-0.2,0.1-0.4,0.2-0.6L221.8,78.1z"/>
	<path d="M229.6,74.3c0,0.8,0,1.5,0,2.2c0,0.6,0,1.2-0.1,1.6c-0.1,1-0.3,1.8-0.5,2.5c-0.3,0.7-0.5,1.2-0.6,1.5s-0.3,0.4-0.4,0.5
		c-0.1,0.1-0.2,0.1-0.3,0.1c-0.1,0-0.1-0.1-0.1-0.2c0,0,0.1-0.4,0.2-1c0.1-0.6,0.2-1.3,0.2-1.9c0-0.6,0-1.5,0-2.6c0-1.1,0-2,0.1-2.5
		c0-0.3,0.1-0.7,0.2-1.1c0.1-0.4,0.2-0.7,0.4-1.1c0.1-0.4,0.3-0.7,0.4-1s0.3-0.6,0.4-0.8c0.1-0.2,0.2-0.2,0.3-0.2
		c0.1,0,0.1,0.1,0.1,0.2c0,0.1,0,0.3-0.1,0.6c0,0.3-0.1,0.7-0.1,1.1c0,0.4,0,0.8-0.1,1.2C229.6,73.8,229.6,74.1,229.6,74.3z"/>
	<path d="M246.1,76.6c0,0.7-0.1,1.6-0.3,2.6c-0.2,1-0.4,1.8-0.7,2.5c-0.4,1.1-0.8,2-1.3,2.8c-0.3,0.5-0.7,1.1-1.2,1.8
		c-0.9,1.2-1.8,2.1-2.7,2.6c-1.1,0.7-2.3,1-3.6,1c-1.4,0-2.4-0.5-3.2-1.5c-0.6-0.9-1-2-1-3.3c0-0.6,0.1-1.3,0.2-2.1
		c0.1-0.8,0.4-1.6,0.7-2.4c0.3-0.8,1-2,1.9-3.6c0.1-0.2,0.2-0.3,0.3-0.4c0.1-0.1,0.2-0.2,0.2-0.1c0.2,0.1,0,0.6-0.4,1.4
		c-0.3,0.5-0.5,0.9-0.6,1.2c-0.3,0.7-0.6,1.4-0.8,2.1c-0.2,0.7-0.3,1.3-0.3,1.8c0,1.3,0.4,2.2,1.2,2.8c0.6,0.4,1.5,0.6,2.7,0.6
		c1,0,1.9-0.2,2.7-0.5c1.2-0.5,2.3-1.4,3.2-2.6c0.4-0.6,0.8-1.3,1.1-2c0.3-0.8,0.4-1.5,0.4-2.2c0-0.4-0.1-0.7-0.2-0.9
		c-0.1-0.2-0.3-0.3-0.5-0.3c-0.2,0.1-0.4,0.1-0.6,0.1c-0.3,0-0.6-0.1-0.8-0.3c-0.2-0.2-0.3-0.4-0.3-0.8c0.1-0.3,0.2-0.7,0.4-1.2
		c0.1-0.3,0.3-0.6,0.4-0.9c0.2-0.3,0.3-0.5,0.4-0.7c0.2-0.3,0.5-0.4,0.7-0.4c0.5,0,0.9,0.3,1.2,0.9C245.9,75,246.1,75.7,246.1,76.6z
		 M237.2,67c0-0.1,0.2-0.7,0.7-1.5c0.5-0.9,0.7-1.3,0.9-1.3c0.2-0.1,0.5,0,0.8,0.4c0.4,0.4,0.7,0.7,0.8,1c0.2-0.4,0.5-0.8,0.7-1.3
		c0.3-0.5,0.5-0.7,0.6-0.7c0.3,0,0.6,0.2,1,0.6c0.4,0.4,0.6,0.8,0.6,1.2c0,0.4-0.2,1-0.6,1.6c-0.4,0.6-0.7,0.9-0.9,0.9
		c-0.1,0-0.3-0.2-0.7-0.5c-0.3-0.3-0.6-0.6-0.9-0.8c-0.6,1.3-1.1,1.9-1.5,1.9c-0.1,0-0.2-0.1-0.4-0.2c-0.2-0.1-0.4-0.3-0.7-0.6
		C237.3,67.3,237.2,67.1,237.2,67z"/>
	<path d="M255.9,73.3c-0.5,2-1.2,3.1-1.8,3.5c-0.9,0.5-1.5,0.8-1.7,0.9c-0.2,0.2-0.3,0.3-0.4,0.4c-0.2,0.3-0.4,0.7-0.6,1.2
		c-0.4,0.9-0.6,1.6-0.9,2.1c-0.4,0.8-0.9,1.3-1.6,1.6c-0.3,0.1-0.8,0.2-1.3,0.3c-0.6,0.1-1,0.2-1.4,0.2c-0.3,0-0.5,0-0.5-0.2
		c0-0.1,0.1-0.2,0.3-0.4c0.1-0.1,0.4-0.3,0.9-0.7c0.1-0.1,0.4-0.3,1.2-0.8c0.6-0.4,0.8-0.6,0.8-0.5c0.6-0.5,1.1-0.9,1.3-1.2
		c0.1-0.1,0.3-0.7,0.8-1.7c0.4-1,0.8-1.7,1-2c0.2-0.3,0.6-0.6,1.1-0.9c0.2-0.1,0.5-0.3,1-0.5c0.4-0.2,0.7-0.4,0.8-0.5
		c0.2-0.1,0.3-0.4,0.6-0.9c0.2-0.4,0.4-0.6,0.5-0.6C255.9,72.8,256,73,255.9,73.3z M251.3,94.3c0,0.1,0.1,0.2,0.2,0.3
		c0.2,0.1,0.5,0.3,0.9,0.6c0.4,0.3,0.6,0.4,0.7,0.4c0.2,0,0.5-0.3,0.8-1s0.6-1.2,0.6-1.5c0-0.3-0.3-0.6-0.7-1.1
		c-0.5-0.5-0.8-0.7-1-0.6c-0.1,0-0.4,0.4-0.8,1.2C251.5,93.5,251.3,94.1,251.3,94.3z"/>
	<path d="M266.1,75.5c-0.3,0.3-0.6,0.5-0.9,0.6c-0.2,0.1-0.3,0.1-0.4,0.1c-0.2,0-0.5-0.1-0.9-0.2c-0.4-0.1-0.6-0.2-0.7-0.3
		c-0.2,0-0.5,0.1-0.8,0.3c-1,0.6-1.9,1.7-2.7,3.1c-0.1,0.2-0.3,0.6-0.5,1.1c-0.5,1.2-0.7,2.2-0.7,3.1c0,1.4,0.5,2.5,1.4,3.3
		c0.9,0.8,2.2,1.3,3.9,1.3c1.3,0,2.6-0.4,4-1.1c1.3-0.7,2.4-1.7,3.4-2.8c0.4-0.6,0.7-1,1-1.3c0.3-0.4,0.5-0.6,0.7-0.5
		c0.1,0.1,0,0.4-0.4,1.1c-0.4,0.7-0.8,1.4-1.4,2.2c-0.3,0.4-0.7,0.9-1.3,1.5c-0.6,0.7-1.1,1.2-1.5,1.6c-1.2,1-2.1,1.8-2.9,2.2
		c-1,0.5-2.1,0.8-3.3,0.8c-0.6,0-1.2-0.1-1.6-0.2c-1.1-0.3-2-0.9-2.6-1.9c-0.3-0.5-0.6-1.1-0.7-1.7c-0.2-0.6-0.2-1.2-0.2-1.9
		c0-0.7,0.1-1.7,0.4-2.7c0.3-1,0.7-2.1,1.1-3c0.3-0.6,0.6-1.1,0.9-1.6c0.4-0.6,0.7-1.1,0.9-1.4c0.2-0.3,0.5-0.6,0.7-0.8
		c0.4-0.4,0.9-1,1.6-1.6c0.1-0.1,0.2-0.2,0.2-0.3c0-0.2-0.1-0.4-0.3-0.6c-0.2-0.2-0.4-0.2-0.6-0.2c-0.1,0-0.3,0-0.4,0.1
		c-0.1,0-0.3,0.1-0.4,0.1c-0.1,0-0.1-0.2,0-0.3c0.1-0.2,0.2-0.4,0.3-0.5c0.3-0.3,0.7-0.6,1.1-0.9c0.5-0.2,0.9-0.4,1.4-0.4
		c0.5,0,0.9,0.1,1.4,0.4c0.4,0.2,0.6,0.5,0.5,0.9c-0.1,0.2-0.1,0.4-0.2,0.6c-0.1,0.2-0.3,0.4-0.5,0.6c-0.1,0.1-0.1,0.2,0.1,0.2
		c0.1,0,0.3,0,0.5,0c0.2,0,0.4-0.1,0.7-0.3c0.3-0.2,0.5-0.4,0.7-0.7c0.2-0.3,0.3-0.6,0.3-0.8v-1.1c0-0.3,0-0.6,0.1-0.9
		c0.2-0.4,0.3-0.8,0.5-1.2l0.7-1.6c0-0.1,0.1-0.2,0.2-0.3c0,0,0.1,0.1,0.1,0.3l0,1.2l-0.1,1.4c0,0.5-0.1,1.1-0.3,1.7
		c-0.2,0.6-0.4,1.2-0.7,1.7C267,74.5,266.5,75,266.1,75.5z M263.2,82.7c0,0.1,0.2,0.2,0.5,0.5c0.3,0.3,0.6,0.5,0.7,0.6
		c0.2,0.1,0.3,0.2,0.4,0.2c0.3,0,0.8-0.6,1.4-1.8c0.2,0.2,0.5,0.4,0.8,0.7c0.3,0.3,0.5,0.5,0.7,0.5c0.2,0,0.5-0.3,0.9-0.8
		c0.4-0.6,0.6-1.1,0.6-1.5c0-0.4-0.2-0.7-0.6-1.1c-0.4-0.4-0.7-0.6-1-0.6c-0.1,0-0.3,0.2-0.5,0.7c-0.3,0.5-0.5,0.9-0.7,1.2
		c-0.2-0.3-0.5-0.6-0.8-0.9c-0.4-0.3-0.6-0.5-0.8-0.4c-0.1,0-0.4,0.4-0.8,1.3C263.5,82,263.2,82.5,263.2,82.7z"/>
	<path d="M277.7,75c0,0.3-0.1,0.8-0.3,1.6c-0.2,0.8-0.5,1.6-0.8,2.6c-0.3,0.9-0.6,1.6-0.9,2.1c-0.3,0.5-0.5,0.8-0.9,1.1
		c-0.3,0.2-0.8,0.5-1.5,0.7c-0.7,0.2-1.2,0.3-1.7,0.4c-0.4,0.1-0.7,0.1-0.8,0.1c-0.1,0-0.2-0.1-0.2-0.1c0-0.1,0-0.2,0.1-0.3
		c0.1-0.2,0.4-0.4,0.9-0.7c0.5-0.3,1-0.7,1.7-1.1c0.6-0.5,1.1-0.9,1.4-1.2c0.3-0.3,0.6-0.9,0.9-1.5s0.7-1.4,0.9-2.1
		c0.3-0.7,0.5-1.2,0.6-1.4c0.1-0.3,0.2-0.4,0.4-0.4C277.6,74.7,277.7,74.8,277.7,75z M276.3,68c0-0.2,0.2-0.8,0.6-1.6
		s0.7-1.2,0.8-1.2c0.2-0.1,0.6,0.1,1,0.6c0.5,0.5,0.7,0.8,0.7,1.1c0,0.4-0.2,0.9-0.6,1.5c-0.4,0.7-0.7,1-0.8,1
		c-0.1,0-0.3-0.2-0.7-0.4c-0.4-0.3-0.7-0.5-0.9-0.6C276.4,68.2,276.3,68.1,276.3,68z"/>
	<path d="M284.3,79c-0.4,1.1-0.7,1.9-1.1,2.4c-0.3,0.5-0.6,0.8-0.8,0.9c-0.2,0.1-0.5,0.3-0.8,0.4c-0.4,0.1-0.9,0.3-1.7,0.6
		c-0.8,0.2-1.2,0.4-1.3,0.4c-0.1,0-0.1,0-0.1-0.1c-0.1-0.1,0.4-0.5,1.4-1.2c1-0.7,1.6-1.1,1.9-1.3c0.3-0.2,0.6-0.5,0.9-0.9
		c0.3-0.4,0.5-0.9,0.7-1.4c-0.2,0-0.3,0-0.5,0.1c-0.2,0.1-0.3,0.1-0.5,0.1c-0.4,0-0.7-0.1-1-0.4S281,78,281,77.7
		c0-0.2,0.1-0.4,0.2-0.7c0.1-0.2,0.3-0.6,0.5-1.2c0.3-0.5,0.5-1,0.8-1.3s0.5-0.5,0.8-0.5c0.4,0,0.8,0.2,1.1,0.6
		c0.3,0.4,0.4,0.9,0.4,1.4c0,0.3,0,0.6,0,0.8c0,0.3-0.1,0.5-0.1,0.7c0,0.2-0.1,0.4-0.2,0.7C284.5,78.5,284.4,78.7,284.3,79z"/>
	<path d="M283.3,63.4c0-0.1,0.2-0.6,0.7-1.5c0.4-0.9,0.7-1.3,0.8-1.3c0.2-0.1,0.5,0.1,0.8,0.4c0.4,0.3,0.6,0.7,0.8,0.9
		c0.2-0.4,0.5-0.8,0.7-1.2c0.3-0.5,0.4-0.7,0.5-0.7c0.3,0,0.6,0.2,1,0.6c0.4,0.4,0.6,0.8,0.6,1.1c0,0.4-0.2,0.9-0.6,1.5
		c-0.4,0.6-0.7,0.8-0.9,0.8c-0.1,0-0.3-0.2-0.7-0.5c-0.3-0.3-0.6-0.6-0.8-0.7c-0.6,1.2-1.1,1.8-1.4,1.8c-0.1,0-0.2-0.1-0.4-0.2
		c-0.2-0.1-0.4-0.3-0.7-0.6S283.3,63.5,283.3,63.4z M283.9,77.7c0-0.1-0.1-0.4-0.2-0.9c0-0.2,0-0.3,0-0.4c0-0.3,0.2-0.5,0.7-0.7
		c0.2-0.1,0.4-0.2,0.6-0.5c0.2-0.2,0.4-0.4,0.4-0.6c0-0.2,0-0.3,0-0.4c0-0.1,0-0.3,0-0.5c0-0.1,0-0.3,0-0.5c0-0.1,0-0.2,0-0.3
		c0-0.1,0.5-1.2,1.3-3.2c0.1-0.1,0.2-0.1,0.2,0c0,0.1,0,0.2,0,0.4l0,2.6c0,0.9-0.2,1.8-0.6,2.7c-0.4,0.8-0.7,1.4-1,1.7
		c-0.3,0.3-0.6,0.6-0.9,1C284.2,78.5,284,78.4,283.9,77.7z"/>
	<path d="M310.9,77.7c-0.4,0-0.7,0-1,0.1c-0.2,0.1-0.5,0.2-0.8,0.4c-0.3,0.2-0.5,0.5-0.8,0.9c-0.1,0.2-0.3,0.4-0.4,0.6
		s-0.3,0.4-0.4,0.6c-0.3,0.4-0.7,0.8-1.1,1.1c-1,0.8-2.5,1.4-4.5,1.8c-1.9,0.4-4.1,0.6-6.4,0.6c-0.9,0-1.7,0-2.5-0.1
		c-0.9-0.1-1.5-0.3-2-0.5c-0.7-0.4-1-1.2-1-2.4c0-0.7,0.1-1.5,0.2-2.3c0.1-0.8,0.2-1.2,0.4-1.2c0.1,0,0.2,0.3,0.2,0.8
		c0.1,0.5,0.2,0.9,0.5,1.2s0.8,0.5,1.4,0.7c0.7,0.2,1.6,0.3,2.9,0.3c1,0,2.2,0,3.5-0.1c1.3-0.1,2.3-0.1,3.2-0.3
		c0.8-0.1,1.8-0.3,3-0.7c0.8-0.2,1.4-0.5,1.9-0.8c0.5-0.3,0.9-0.6,1.2-0.9c0,0,0.2-0.2,0.4-0.6c0.3-0.4,0.5-0.6,0.6-0.8
		c0.3-0.4,0.8-0.6,1.3-0.7c0.4,0.2,0.5,0.6,0.5,1.1C311.3,77.1,311.1,77.5,310.9,77.7z M296,74c0-0.1,0.2-0.6,0.7-1.5
		c0.4-0.9,0.7-1.3,0.8-1.3c0.2-0.1,0.5,0.1,0.8,0.4s0.6,0.7,0.8,0.9c0.2-0.4,0.5-0.8,0.7-1.2s0.4-0.7,0.5-0.7c0.3,0,0.6,0.2,1,0.6
		c0.4,0.4,0.6,0.8,0.6,1.1c0,0.4-0.2,0.9-0.6,1.5c-0.4,0.6-0.7,0.8-0.9,0.8c-0.1,0-0.3-0.2-0.7-0.5s-0.6-0.6-0.8-0.7
		c-0.6,1.2-1.1,1.8-1.4,1.8c-0.1,0-0.2-0.1-0.4-0.2c-0.2-0.1-0.4-0.3-0.7-0.6C296.2,74.2,296,74.1,296,74z"/>
	<path d="M310.9,77.7c-0.1-0.4-0.2-0.7-0.2-1.1c0-0.4,0-0.7,0.2-1.1c0.3,0,0.6,0,0.8,0.1c0.3,0.1,0.5-0.1,0.7-0.5
		c0.1-0.2,0.2-0.6,0.2-1.1c0.1-0.5,0.1-1,0.1-1.3l0-4.6l0.8-2.4L314,64c0.1-0.2,0.2-0.2,0.2-0.1c0,0,0,0.2,0,0.4c0,0.5,0,1-0.1,1.5
		c0,0.6-0.1,1.1-0.1,1.6c-0.1,2.9-0.2,4.6-0.2,5.3c-0.1,0.7-0.2,1.3-0.4,1.8c-0.2,0.5-0.4,1-0.6,1.4c-0.3,0.5-0.6,0.9-0.8,1.2
		c-0.3,0.4-0.6,0.5-0.8,0.5C311.1,77.7,311,77.7,310.9,77.7z M315.7,61.3c0.4-0.5,1.5-1.4,3.1-2.8c1.3-1,2.7-2.2,4.3-3.5
		c1-0.8,1.9-1.7,2.9-2.6c0.5-0.5,1.4-1.4,2.6-2.6c1.7-1.6,2.5-2.5,2.5-2.5c0,0.1,0,0.2-0.1,0.3c-0.1,0.4-0.3,0.8-0.6,1.4
		c-0.3,0.6-0.6,1.1-0.9,1.4c-0.3,0.4-0.7,0.9-1.1,1.4c-0.6,0.6-0.9,1-1,1.1c-0.3,0.3-0.8,0.8-1.7,1.6c-0.3,0.3-0.7,0.6-1.1,1
		c-0.5,0.4-1,0.9-1.6,1.4c-0.8,0.7-1.6,1.3-2.3,1.9c-0.9,0.7-1.8,1.4-2.7,2.1l-2.3,1.8c-0.2,0.1-0.3,0.3-0.5,0.4
		c-0.2,0.1-0.3,0.2-0.5,0.4c-0.3,0.3-0.5,0.3-0.5,0.3c0.2-0.4,0.4-0.9,0.6-1.4C315.2,62,315.5,61.6,315.7,61.3z"/>
	<path d="M322.6,74.2c0.1-0.1,0.2-0.1,0.4-0.1c0.1,0,0.2,0,0.3-0.1c0.2,0.3,0.3,0.6,0.4,0.9s0.1,0.6,0.1,0.9c0,0.3-0.1,0.6-0.2,0.8
		c-0.1,0.3-0.2,0.5-0.3,0.7c-0.2,0-0.4,0-0.7,0c-0.3,0-0.6,0-1,0.1c-0.3,0.1-0.7,0.3-1.3,0.5c-0.8,0.5-1.5,1-2,1.7s-1.2,1.6-1.9,2.7
		c-0.8,1.1-1.5,2-2.3,2.8c-0.8,0.8-1.4,1.4-1.9,1.7c-0.5,0.4-1,0.7-1.4,1c-0.4,0.3-0.9,0.5-1.4,0.7c0,0-0.1,0-0.2,0.1
		c-0.1,0-0.2,0.1-0.3,0.1c-0.2,0.1-0.3,0.1-0.5,0c0-0.1,0-0.2,0.1-0.3c0.2-0.2,0.5-0.4,0.9-0.8c0.5-0.3,1.1-0.8,1.8-1.3
		c0.7-0.5,1.3-1.2,2-1.9c0.7-0.8,1.3-1.6,2-2.6c0.3-0.4,0.6-0.8,0.8-1.2c1-1.4,1.6-2.3,1.9-2.7c0.8-1,1.6-1.8,2.4-2.4
		C321.1,74.9,321.9,74.4,322.6,74.2z"/>
	<path d="M329.9,70.9c-0.5,1.2-0.9,1.8-1.3,1.8c-0.2,0-0.5,0-0.7,0.1c-0.2,0.1-0.4,0.2-0.6,0.3s-0.4,0.4-0.7,0.8
		c-0.9,1.6-1.6,2.6-1.9,2.9c-0.3,0.4-0.8,0.5-1.4,0.5c-0.3-1.1-0.3-2.2,0-3.3c0.4-0.1,0.8-0.1,1.3-0.1c0.5,0,0.7,0,0.6,0
		c0.2,0,0.5-0.2,0.7-0.5c0.1-0.1,0.3-0.4,0.5-0.7c0.1-0.2,0.4-0.5,0.7-0.9c0.3-0.4,0.7-0.7,1.1-0.8c0.4-0.1,0.7-0.1,1-0.1
		c0.2-0.2,0.3-0.5,0.4-0.7s0.2-0.3,0.3-0.4c0.1-0.1,0.2,0,0.2,0.2C330.1,70.2,330,70.5,329.9,70.9z M325,63.5c0-0.1,0.2-0.7,0.7-1.5
		s0.8-1.3,0.9-1.3c0.2,0,0.5,0.2,0.9,0.5c0.4,0.3,0.7,0.6,0.8,0.9c0.2-0.4,0.5-0.8,0.7-1.2c0.3-0.5,0.5-0.8,0.6-0.8
		c0.3,0,0.6,0.2,1.1,0.6c0.4,0.4,0.6,0.8,0.6,1.2c0,0.4-0.2,0.9-0.6,1.5c-0.4,0.6-0.7,0.9-0.9,0.9c-0.2,0-0.4-0.1-0.7-0.4
		c-0.4-0.4-0.7-0.7-1-0.9c-0.6,1.3-1.1,1.9-1.5,1.9c-0.1,0-0.4-0.2-0.9-0.6C325.2,63.8,325,63.6,325,63.5z M326.6,59.3
		c0-0.1,0.2-0.6,0.7-1.5c0.4-0.9,0.7-1.3,0.9-1.3c0.3,0,0.7,0.2,1.1,0.6c0.4,0.4,0.6,0.8,0.6,1.2c0,0.4-0.2,0.9-0.6,1.5
		c-0.4,0.7-0.6,1-0.8,1c-0.1,0-0.3-0.2-0.7-0.5c-0.4-0.3-0.6-0.5-0.8-0.7C326.7,59.6,326.6,59.4,326.6,59.3z"/>
</g>
<path d="M148.1,120h207.1c4.6,0.6,8.6-4,8.7-9.4c0.1-5.5-3.9-10.3-8.7-9.6c-69,0-138.1,0-207.1,0c-4,0.4-7,4.8-6.9,9.7
	C141.3,115.5,144.3,119.6,148.1,120z"/>
<g>
	<path class="st4" d="M145.5,105h6v1.2h-6V105z M147.9,105.7h1.2v7.9h-1.2V105.7z"/>
	<path class="st4" d="M153.4,113.4c-0.4-0.2-0.7-0.5-0.9-0.9s-0.3-0.9-0.3-1.5v-0.7c0-0.6,0.1-1.1,0.3-1.6c0.2-0.4,0.5-0.8,0.9-1
		s0.8-0.3,1.4-0.3c0.5,0,0.9,0.1,1.3,0.4s0.6,0.6,0.8,1.1c0.2,0.5,0.3,1.1,0.3,1.8v0.4H153v-1h3c0-0.5-0.2-0.9-0.4-1.2
		s-0.5-0.4-0.9-0.4c-0.5,0-0.8,0.2-1.1,0.5c-0.2,0.3-0.4,0.7-0.4,1.3v0.8c0,0.5,0.1,0.9,0.4,1.2c0.3,0.3,0.6,0.4,1.1,0.4
		c0.2,0,0.5,0,0.7-0.1c0.2-0.1,0.5-0.2,0.6-0.4l0.8,0.8c-0.3,0.3-0.6,0.5-1,0.7c-0.4,0.2-0.8,0.2-1.1,0.2
		C154.3,113.7,153.8,113.6,153.4,113.4z"/>
	<path class="st4" d="M158.8,105h1.2v8.6h-1.2V105z M162.5,109.9c0-0.4-0.1-0.8-0.3-1c-0.2-0.2-0.5-0.4-0.9-0.4
		c-0.4,0-0.7,0.1-0.9,0.3s-0.3,0.5-0.3,0.9l-0.1-1.2c0.2-0.4,0.4-0.6,0.7-0.8c0.3-0.2,0.6-0.3,1-0.3c0.7,0,1.2,0.2,1.5,0.7
		s0.5,1.1,0.5,1.9v3.7h-1.2V109.9z"/>
	<path class="st4" d="M165.5,107.5h1.2v6.2h-1.2V107.5z M168.4,108.6c-0.2-0.1-0.3-0.1-0.6-0.1c-0.4,0-0.7,0.1-0.9,0.3
		s-0.3,0.5-0.3,0.9l-0.1-1.2c0.2-0.4,0.4-0.7,0.7-0.9c0.3-0.2,0.6-0.3,1-0.3c0.3,0,0.5,0,0.8,0.1s0.4,0.2,0.6,0.4l-0.8,1.1
		C168.7,108.8,168.6,108.7,168.4,108.6z"/>
	<path class="st4" d="M170.9,113.2c-0.4-0.3-0.6-0.8-0.6-1.4c0-0.6,0.2-1.1,0.5-1.4c0.3-0.3,0.9-0.5,1.5-0.5h1.7l0.1,1h-1.8
		c-0.3,0-0.5,0.1-0.7,0.2c-0.2,0.1-0.2,0.4-0.2,0.6c0,0.3,0.1,0.5,0.3,0.7s0.5,0.2,0.9,0.2c0.5,0,0.8,0,1-0.1
		c0.2-0.1,0.3-0.3,0.3-0.5l0.1,0.9c-0.1,0.2-0.2,0.3-0.4,0.4c-0.2,0.1-0.3,0.2-0.5,0.2s-0.4,0.1-0.7,0.1
		C171.8,113.7,171.2,113.6,170.9,113.2z M174,109.7c0-0.4-0.1-0.7-0.3-0.9c-0.2-0.2-0.5-0.3-0.9-0.3c-0.2,0-0.5,0-0.7,0.1
		s-0.4,0.2-0.6,0.3l-0.9-0.6c0.2-0.3,0.5-0.5,0.9-0.7c0.4-0.2,0.8-0.2,1.3-0.2c0.5,0,0.9,0.1,1.3,0.3s0.6,0.4,0.8,0.8
		s0.3,0.8,0.3,1.2v4H174V109.7z"/>
	<path class="st4" d="M177,107.5h1.2v6.2H177V107.5z M180.7,109.9c0-0.4-0.1-0.8-0.3-1c-0.2-0.2-0.5-0.4-0.9-0.4
		c-0.4,0-0.7,0.1-0.9,0.3s-0.3,0.5-0.3,0.9l-0.1-1.2c0.2-0.4,0.4-0.7,0.7-0.9c0.3-0.2,0.6-0.3,1-0.3c0.7,0,1.2,0.2,1.5,0.7
		s0.5,1.1,0.5,1.9v3.7h-1.2V109.9z"/>
	<path class="st4" d="M187,105h1.2v8.6H187V105z M187.6,105h4.9v1.2h-4.9V105z M187.6,108.8h4.2v1.2h-4.2V108.8z M187.6,112.5h4.9
		v1.2h-4.9V112.5z"/>
	<path class="st4" d="M195.3,112c0,0.2,0,0.3,0.1,0.3s0.2,0.1,0.3,0.1h0.6v1.2h-0.7c-0.5,0-0.8-0.1-1.1-0.4s-0.4-0.7-0.4-1.2v-7h1.2
		V112z"/>
	<path class="st4" d="M198.6,113.4c-0.4-0.2-0.7-0.5-0.9-0.9s-0.3-0.9-0.3-1.5v-0.7c0-0.6,0.1-1.1,0.3-1.6c0.2-0.4,0.5-0.8,0.9-1
		s0.8-0.3,1.4-0.3c0.5,0,0.9,0.1,1.3,0.4s0.6,0.6,0.8,1.1c0.2,0.5,0.3,1.1,0.3,1.8v0.4h-4.1v-1h3c0-0.5-0.2-0.9-0.4-1.2
		s-0.5-0.4-0.9-0.4c-0.5,0-0.8,0.2-1.1,0.5c-0.2,0.3-0.4,0.7-0.4,1.3v0.8c0,0.5,0.1,0.9,0.4,1.2c0.3,0.3,0.6,0.4,1.1,0.4
		c0.2,0,0.5,0,0.7-0.1c0.2-0.1,0.5-0.2,0.6-0.4l0.8,0.8c-0.3,0.3-0.6,0.5-1,0.7c-0.4,0.2-0.8,0.2-1.1,0.2
		C199.5,113.7,199,113.6,198.6,113.4z"/>
	<path class="st4" d="M205,113.4c-0.4-0.2-0.7-0.5-0.9-0.9s-0.3-0.9-0.3-1.5v-1c0-0.6,0.1-1,0.3-1.4s0.5-0.7,0.9-0.9
		c0.4-0.2,0.9-0.3,1.4-0.3c0.3,0,0.6,0,0.9,0.1c0.3,0.1,0.5,0.2,0.8,0.3s0.4,0.3,0.6,0.5l-0.9,0.8c-0.2-0.2-0.4-0.4-0.6-0.5
		c-0.2-0.1-0.5-0.2-0.7-0.2c-0.5,0-0.8,0.1-1.1,0.4s-0.4,0.6-0.4,1.1v1c0,0.5,0.1,0.9,0.4,1.1s0.6,0.4,1.1,0.4
		c0.3,0,0.5-0.1,0.7-0.2s0.4-0.3,0.6-0.5l0.9,0.8c-0.2,0.2-0.3,0.4-0.6,0.5c-0.2,0.1-0.5,0.3-0.8,0.3s-0.6,0.1-0.9,0.1
		C205.9,113.7,205.4,113.6,205,113.4z"/>
	<path class="st4" d="M209.5,107.5h2.7v1.1h-2.7V107.5z M210.5,113.2c-0.2-0.3-0.3-0.7-0.3-1.2v-6.4h1.2v6.4c0,0.2,0,0.3,0.1,0.3
		s0.1,0.1,0.3,0.1h0.6v1.2h-0.7C211,113.7,210.7,113.5,210.5,113.2z"/>
	<path class="st4" d="M213.9,107.5h1.2v6.2h-1.2V107.5z M216.8,108.6c-0.2-0.1-0.3-0.1-0.6-0.1c-0.4,0-0.7,0.1-0.9,0.3
		s-0.3,0.5-0.3,0.9l-0.1-1.2c0.2-0.4,0.4-0.7,0.7-0.9c0.3-0.2,0.6-0.3,1-0.3c0.3,0,0.5,0,0.8,0.1s0.4,0.2,0.6,0.4l-0.8,1.1
		C217.1,108.8,217,108.7,216.8,108.6z"/>
	<path class="st4" d="M219,105h1.2v1.2H219V105z M219,107.5h1.2v6.2H219V107.5z"/>
	<path class="st4" d="M223,113.4c-0.4-0.2-0.7-0.5-0.9-0.9s-0.3-0.9-0.3-1.5v-1c0-0.6,0.1-1,0.3-1.4s0.5-0.7,0.9-0.9
		c0.4-0.2,0.9-0.3,1.4-0.3c0.3,0,0.6,0,0.9,0.1c0.3,0.1,0.5,0.2,0.8,0.3s0.4,0.3,0.6,0.5l-0.9,0.8c-0.2-0.2-0.4-0.4-0.6-0.5
		c-0.2-0.1-0.5-0.2-0.7-0.2c-0.5,0-0.8,0.1-1.1,0.4s-0.4,0.6-0.4,1.1v1c0,0.5,0.1,0.9,0.4,1.1s0.6,0.4,1.1,0.4
		c0.3,0,0.5-0.1,0.7-0.2s0.4-0.3,0.6-0.5l0.9,0.8c-0.2,0.2-0.3,0.4-0.6,0.5c-0.2,0.1-0.5,0.3-0.8,0.3s-0.6,0.1-0.9,0.1
		C223.9,113.7,223.4,113.6,223,113.4z"/>
	<path class="st4" d="M228,105h1.2v1.2H228V105z M228,107.5h1.2v6.2H228V107.5z"/>
	<path class="st4" d="M230.5,107.5h2.7v1.1h-2.7V107.5z M231.5,113.2c-0.2-0.3-0.3-0.7-0.3-1.2v-6.4h1.2v6.4c0,0.2,0,0.3,0.1,0.3
		s0.1,0.1,0.3,0.1h0.6v1.2h-0.7C232.1,113.7,231.7,113.5,231.5,113.2z"/>
	<path class="st4" d="M234.3,107.5h1.2l1.9,5.4l-0.7,1.3L234.3,107.5z M239.6,107.5l-2.6,7.6c-0.1,0.3-0.2,0.5-0.4,0.7
		c-0.2,0.2-0.3,0.3-0.6,0.4c-0.2,0.1-0.5,0.1-0.8,0.1h-0.2V115h0.2c0.2,0,0.4,0,0.5-0.1c0.1-0.1,0.2-0.2,0.3-0.5l2.2-7H239.6z"/>
	<path class="st4" d="M244,105h1.2v8.6H244V105z M244.8,112.5h1.9c0.6,0,1.1-0.2,1.5-0.5s0.5-0.8,0.5-1.4V108c0-0.6-0.2-1.1-0.5-1.4
		s-0.8-0.5-1.5-0.5h-1.9V105h1.9c0.7,0,1.3,0.1,1.8,0.4c0.5,0.2,0.9,0.6,1.1,1.1s0.4,1,0.4,1.7v2.5c0,0.7-0.1,1.2-0.4,1.7
		s-0.6,0.8-1.1,1.1c-0.5,0.2-1.1,0.4-1.8,0.4h-1.9V112.5z"/>
	<path class="st4" d="M251.8,105h1.2v1.2h-1.2V105z M251.8,107.5h1.2v6.2h-1.2V107.5z"/>
	<path class="st4" d="M256,113.6c-0.3-0.1-0.6-0.2-0.9-0.3s-0.5-0.3-0.8-0.5l0.7-0.9c0.3,0.3,0.7,0.4,1,0.6s0.6,0.2,1,0.2
		c0.5,0,0.8-0.1,1.1-0.2c0.2-0.1,0.4-0.4,0.4-0.7c0-0.2-0.1-0.3-0.2-0.4c-0.1-0.1-0.3-0.2-0.5-0.2c-0.2,0-0.5-0.1-0.8-0.1
		c0,0-0.1,0-0.1,0s-0.1,0-0.1,0c0,0,0,0,0,0s0,0,0,0c-0.4,0-0.7-0.1-1-0.2s-0.5-0.2-0.7-0.5c-0.2-0.2-0.3-0.6-0.3-1
		c0-0.4,0.1-0.8,0.3-1.1s0.4-0.5,0.8-0.7s0.8-0.2,1.3-0.2c0.3,0,0.6,0,0.9,0.1s0.6,0.1,0.8,0.3c0.3,0.1,0.5,0.3,0.8,0.4l-0.7,0.9
		c-0.3-0.2-0.6-0.3-0.9-0.4c-0.3-0.1-0.6-0.1-0.9-0.1c-0.4,0-0.7,0.1-0.9,0.2s-0.3,0.4-0.3,0.6c0,0.2,0.1,0.3,0.2,0.4
		s0.3,0.1,0.4,0.2c0.2,0,0.4,0.1,0.8,0.1c0,0,0,0,0.1,0s0.1,0,0.1,0c0,0,0,0,0,0s0,0,0,0c0.4,0,0.8,0.1,1.1,0.2
		c0.3,0.1,0.5,0.3,0.8,0.5s0.3,0.6,0.3,1.1c0,0.4-0.1,0.8-0.3,1.1s-0.5,0.5-0.8,0.7s-0.9,0.2-1.4,0.2
		C256.6,113.7,256.3,113.7,256,113.6z"/>
	<path class="st4" d="M260.6,107.5h2.7v1.1h-2.7V107.5z M261.5,113.2c-0.2-0.3-0.3-0.7-0.3-1.2v-6.4h1.2v6.4c0,0.2,0,0.3,0.1,0.3
		s0.1,0.1,0.3,0.1h0.6v1.2h-0.7C262.1,113.7,261.8,113.5,261.5,113.2z"/>
	<path class="st4" d="M264.9,107.5h1.2v6.2h-1.2V107.5z M267.9,108.6c-0.2-0.1-0.3-0.1-0.6-0.1c-0.4,0-0.7,0.1-0.9,0.3
		s-0.3,0.5-0.3,0.9l-0.1-1.2c0.2-0.4,0.4-0.7,0.7-0.9c0.3-0.2,0.6-0.3,1-0.3c0.3,0,0.5,0,0.8,0.1s0.4,0.2,0.6,0.4l-0.8,1.1
		C268.2,108.8,268.1,108.7,267.9,108.6z"/>
	<path class="st4" d="M270.1,105h1.2v1.2h-1.2V105z M270.1,107.5h1.2v6.2h-1.2V107.5z"/>
	<path class="st4" d="M273.1,105h1.2v8.6h-1.2V105z M274.8,113.4c-0.3-0.2-0.5-0.4-0.6-0.8l0.1-1.3c0,0.3,0,0.5,0.1,0.7
		s0.2,0.3,0.4,0.4c0.2,0.1,0.4,0.1,0.6,0.1c0.4,0,0.7-0.1,0.9-0.4s0.3-0.6,0.3-1v-1.3c0-0.5-0.1-0.8-0.3-1.1s-0.5-0.4-0.9-0.4
		c-0.3,0-0.5,0-0.6,0.1c-0.2,0.1-0.3,0.2-0.4,0.4s-0.1,0.4-0.1,0.7l-0.1-1.2c0.2-0.4,0.4-0.6,0.7-0.8s0.6-0.3,1-0.3
		c0.4,0,0.8,0.1,1.1,0.3s0.5,0.5,0.7,0.9c0.2,0.4,0.2,0.8,0.2,1.4v1.3c0,0.5-0.1,1-0.2,1.3s-0.4,0.7-0.7,0.9s-0.7,0.3-1.1,0.3
		C275.4,113.7,275.1,113.6,274.8,113.4z"/>
	<path class="st4" d="M280.8,111.2c0,0.4,0.1,0.8,0.3,1c0.2,0.2,0.5,0.4,0.9,0.4c0.4,0,0.7-0.1,0.9-0.3s0.3-0.5,0.3-0.9l0.1,1.3
		c-0.1,0.3-0.3,0.6-0.6,0.8s-0.6,0.3-1,0.3c-0.7,0-1.2-0.2-1.6-0.7c-0.4-0.4-0.5-1.1-0.5-1.9v-3.8h1.2V111.2z M283.3,107.5h1.2v6.2
		h-1.2V107.5z"/>
	<path class="st4" d="M285.8,107.5h2.7v1.1h-2.7V107.5z M286.8,113.2c-0.2-0.3-0.3-0.7-0.3-1.2v-6.4h1.2v6.4c0,0.2,0,0.3,0.1,0.3
		s0.1,0.1,0.3,0.1h0.6v1.2h-0.7C287.4,113.7,287,113.5,286.8,113.2z"/>
	<path class="st4" d="M290.2,105h1.2v1.2h-1.2V105z M290.2,107.5h1.2v6.2h-1.2V107.5z"/>
	<path class="st4" d="M294.2,113.4c-0.4-0.2-0.7-0.5-0.9-0.9s-0.3-0.9-0.3-1.5v-1c0-0.6,0.1-1,0.3-1.4s0.5-0.7,0.9-0.9
		c0.4-0.2,0.8-0.3,1.4-0.3s1,0.1,1.4,0.3c0.4,0.2,0.7,0.5,0.9,0.9s0.3,0.9,0.3,1.4v1c0,0.6-0.1,1-0.3,1.4s-0.5,0.7-0.9,0.9
		c-0.4,0.2-0.8,0.3-1.4,0.3S294.6,113.6,294.2,113.4z M296.5,112.2c0.2-0.3,0.3-0.6,0.3-1.1v-1c0-0.5-0.1-0.9-0.3-1.1
		s-0.6-0.4-1-0.4s-0.7,0.1-1,0.4s-0.3,0.6-0.3,1.1v1c0,0.5,0.1,0.9,0.3,1.1s0.6,0.4,1,0.4S296.3,112.4,296.5,112.2z"/>
	<path class="st4" d="M299.7,107.5h1.2v6.2h-1.2V107.5z M303.4,109.9c0-0.4-0.1-0.8-0.3-1c-0.2-0.2-0.5-0.4-0.9-0.4
		c-0.4,0-0.7,0.1-0.9,0.3s-0.3,0.5-0.3,0.9l-0.1-1.2c0.2-0.4,0.4-0.7,0.7-0.9c0.3-0.2,0.6-0.3,1-0.3c0.7,0,1.2,0.2,1.5,0.7
		s0.5,1.1,0.5,1.9v3.7h-1.2V109.9z"/>
	<path class="st4" d="M311,113.3c-0.4-0.3-0.8-0.6-1-1.1c-0.2-0.5-0.4-1.1-0.4-1.7v-2.4c0-0.6,0.1-1.2,0.4-1.7
		c0.2-0.5,0.6-0.9,1-1.1s1-0.4,1.6-0.4c0.5,0,0.9,0.1,1.3,0.3s0.8,0.5,1,0.9s0.5,0.8,0.6,1.3h-1.2c-0.1-0.3-0.2-0.5-0.4-0.7
		c-0.2-0.2-0.4-0.4-0.6-0.5s-0.5-0.2-0.7-0.2c-0.3,0-0.7,0.1-0.9,0.3c-0.3,0.2-0.5,0.4-0.6,0.7s-0.2,0.7-0.2,1.1v2.4
		c0,0.4,0.1,0.8,0.2,1.1c0.1,0.3,0.3,0.5,0.6,0.7c0.3,0.2,0.6,0.3,0.9,0.3c0.3,0,0.5-0.1,0.7-0.2s0.4-0.3,0.6-0.5s0.3-0.5,0.4-0.8
		h1.2c-0.1,0.5-0.3,1-0.6,1.4s-0.6,0.7-1,0.9c-0.4,0.2-0.9,0.3-1.3,0.3C312,113.7,311.5,113.6,311,113.3z"/>
	<path class="st4" d="M318.1,113.4c-0.4-0.2-0.7-0.5-0.9-0.9s-0.3-0.9-0.3-1.5v-1c0-0.6,0.1-1,0.3-1.4s0.5-0.7,0.9-0.9
		c0.4-0.2,0.8-0.3,1.4-0.3s1,0.1,1.4,0.3c0.4,0.2,0.7,0.5,0.9,0.9s0.3,0.9,0.3,1.4v1c0,0.6-0.1,1-0.3,1.4s-0.5,0.7-0.9,0.9
		c-0.4,0.2-0.8,0.3-1.4,0.3S318.4,113.6,318.1,113.4z M320.4,112.2c0.2-0.3,0.3-0.6,0.3-1.1v-1c0-0.5-0.1-0.9-0.3-1.1
		s-0.6-0.4-1-0.4s-0.7,0.1-1,0.4s-0.3,0.6-0.3,1.1v1c0,0.5,0.1,0.9,0.3,1.1s0.6,0.4,1,0.4S320.2,112.4,320.4,112.2z"/>
	<path class="st4" d="M323.6,107.5h1.2v6.2h-1.2V107.5z M327.3,109.9c0-0.4-0.1-0.8-0.3-1c-0.2-0.2-0.5-0.4-0.9-0.4
		c-0.4,0-0.7,0.1-0.9,0.3s-0.3,0.5-0.3,0.9l-0.1-1.2c0.2-0.4,0.4-0.7,0.7-0.9c0.3-0.2,0.6-0.3,1-0.3c0.4,0,0.8,0.1,1.1,0.3
		s0.5,0.5,0.7,0.9c0.2,0.4,0.2,0.8,0.2,1.4v3.7h-1.2V109.9z M330.9,109.9c0-0.4-0.1-0.8-0.3-1c-0.2-0.2-0.5-0.4-0.9-0.4
		c-0.4,0-0.7,0.1-0.9,0.3c-0.2,0.2-0.3,0.6-0.3,1l-0.2-1.2c0.2-0.4,0.4-0.7,0.8-0.9s0.7-0.3,1-0.3c0.4,0,0.8,0.1,1.1,0.3
		s0.5,0.5,0.7,0.9c0.2,0.4,0.2,0.8,0.2,1.4v3.7h-1.2V109.9z"/>
	<path class="st4" d="M333.9,107.5h1.2v8.7h-1.2V107.5z M335.6,113.4c-0.3-0.2-0.5-0.4-0.6-0.8l0.1-1.3c0,0.3,0,0.5,0.1,0.7
		s0.2,0.3,0.4,0.4c0.2,0.1,0.4,0.1,0.6,0.1c0.4,0,0.7-0.1,0.9-0.4s0.3-0.6,0.3-1v-1.3c0-0.5-0.1-0.8-0.3-1.1s-0.5-0.4-0.9-0.4
		c-0.3,0-0.5,0-0.6,0.1c-0.2,0.1-0.3,0.2-0.4,0.4s-0.1,0.4-0.1,0.7l-0.1-1.2c0.2-0.4,0.4-0.6,0.7-0.8s0.6-0.3,1-0.3
		c0.4,0,0.8,0.1,1.1,0.3s0.5,0.5,0.7,0.9c0.2,0.4,0.2,0.8,0.2,1.4v1.3c0,0.5-0.1,1-0.2,1.3s-0.4,0.7-0.7,0.9s-0.7,0.3-1.1,0.3
		C336.3,113.7,335.9,113.6,335.6,113.4z"/>
	<path class="st4" d="M340.7,113.2c-0.4-0.3-0.6-0.8-0.6-1.4c0-0.6,0.2-1.1,0.5-1.4c0.3-0.3,0.9-0.5,1.5-0.5h1.7l0.1,1h-1.8
		c-0.3,0-0.5,0.1-0.7,0.2c-0.2,0.1-0.2,0.4-0.2,0.6c0,0.3,0.1,0.5,0.3,0.7s0.5,0.2,0.9,0.2c0.5,0,0.8,0,1-0.1
		c0.2-0.1,0.3-0.3,0.3-0.5l0.1,0.9c-0.1,0.2-0.2,0.3-0.4,0.4c-0.2,0.1-0.3,0.2-0.5,0.2s-0.4,0.1-0.7,0.1
		C341.6,113.7,341.1,113.6,340.7,113.2z M343.9,109.7c0-0.4-0.1-0.7-0.3-0.9c-0.2-0.2-0.5-0.3-0.9-0.3c-0.2,0-0.5,0-0.7,0.1
		s-0.4,0.2-0.6,0.3l-0.9-0.6c0.2-0.3,0.5-0.5,0.9-0.7c0.4-0.2,0.8-0.2,1.3-0.2c0.5,0,0.9,0.1,1.3,0.3s0.6,0.4,0.8,0.8
		s0.3,0.8,0.3,1.2v4h-1.1V109.7z"/>
	<path class="st4" d="M346.8,107.5h1.2v6.2h-1.2V107.5z M350.5,109.9c0-0.4-0.1-0.8-0.3-1c-0.2-0.2-0.5-0.4-0.9-0.4
		c-0.4,0-0.7,0.1-0.9,0.3s-0.3,0.5-0.3,0.9l-0.1-1.2c0.2-0.4,0.4-0.7,0.7-0.9c0.3-0.2,0.6-0.3,1-0.3c0.7,0,1.2,0.2,1.5,0.7
		s0.5,1.1,0.5,1.9v3.7h-1.2V109.9z"/>
	<path class="st4" d="M352.9,107.5h1.2l1.9,5.4l-0.7,1.3L352.9,107.5z M358.3,107.5l-2.6,7.6c-0.1,0.3-0.2,0.5-0.4,0.7
		c-0.2,0.2-0.3,0.3-0.6,0.4c-0.2,0.1-0.5,0.1-0.8,0.1h-0.2V115h0.2c0.2,0,0.4,0,0.5-0.1c0.1-0.1,0.2-0.2,0.3-0.5l2.2-7H358.3z"/>
</g>
</svg>
